<?xml version="1.0" encoding="UTF-8"?>
<svg id="_レイヤー_1" data-name="レイヤー 1" xmlns="http://www.w3.org/2000/svg" viewBox="0 0 20 20">
  <defs>
    <style>
      .cls-1 {
        fill: #fff;
      }
    </style>
  </defs>
  <g>
    <rect class="cls-1" x="3.05" y="3.05" width="14.49" height="14.49" rx="3.29" ry="3.29"/>
    <path d="M14.25,3.55c1.54,0,2.79,1.25,2.79,2.79v7.91c0,1.54-1.25,2.79-2.79,2.79h-7.91c-1.54,0-2.79-1.25-2.79-2.79v-7.91c0-1.54,1.25-2.79,2.79-2.79h7.91M14.25,2.55h-7.91c-2.09,0-3.79,1.7-3.79,3.79v7.91c0,2.09,1.7,3.79,3.79,3.79h7.91c2.09,0,3.79-1.7,3.79-3.79v-7.91c0-2.09-1.7-3.79-3.79-3.79h0Z"/>
  </g>
  <g>
    <path class="cls-1" d="M10.3,13.71c-1.88,0-3.41-1.53-3.41-3.41s1.53-3.41,3.41-3.41,3.41,1.53,3.41,3.41-1.53,3.41-3.41,3.41Z"/>
    <path d="M10.3,7.39c1.6,0,2.91,1.3,2.91,2.91s-1.3,2.91-2.91,2.91-2.91-1.3-2.91-2.91,1.3-2.91,2.91-2.91M10.3,6.39c-2.16,0-3.91,1.75-3.91,3.91s1.75,3.91,3.91,3.91,3.91-1.75,3.91-3.91-1.75-3.91-3.91-3.91h0Z"/>
  </g>
  <g>
    <path class="cls-1" d="M14.99,5.84c-.19,0-.34-.15-.34-.34s.15-.34.34-.34.34.15.34.34-.15.34-.34.34Z"/>
    <path d="M14.99,4.67c-.46,0-.84.38-.84.84s.38.84.84.84.84-.38.84-.84-.38-.84-.84-.84h0Z"/>
  </g>
</svg>